:version 1.10
:name ASF
:units
  mass 1
  length 1
  angle deg
:documentation
  ASF file generated by Kaydara
:root
  axis xyz
  order  tx ty tz rx ry rz
  position 0 0 0
  orientation 0 0 0
:bonedata
  begin
    id 1
    name lfemurDummy
    direction 0.61522 -0.761478 0.204097
    length 5.68318
    axis 0 -0 0 xyz
  end
  begin
    id 2
    name lfemur
    direction 0.34202 -0.939693 -5.84747e-008
    length 16.9147
    axis 0 -0 20 xyz
    dof rx ry rz
    limits( -inf , inf )
( -inf , inf )
( -inf , inf )

  end
  begin
    id 3
    name ltibia
    direction 0.34202 -0.939693 1.20839e-009
    length 18.0532
    axis 0 -0 20 xyz
    dof rz ry rx
    limits( -inf , inf )
( -inf , inf )
( -inf , inf )

  end
  begin
    id 4
    name lfoot
    direction 0.0841971 -0.23133 0.969225
    length 5.23822
    axis -90 7.62852e-016 20 xyz
    dof ry rx rz
    limits( -inf , inf )
( -inf , inf )
( -inf , inf )

  end
  begin
    id 5
    name ltoes
    direction 0 0 0
    length 0
    axis 0 0 0 xyz
    dof rz ry rx
    limits( -inf , inf )
( -inf , inf )
( -inf , inf )

  end
  begin
    id 6
    name rfemurDummy
    direction -0.625247 -0.75382 0.202044
    length 5.74091
    axis 0 -0 0 xyz
  end
  begin
    id 7
    name rfemur
    direction -0.34202 -0.939693 -1.47013e-008
    length 16.4922
    axis 0 -0 -20 xyz
    dof rx ry rz
    limits( -inf , inf )
( -inf , inf )
( -inf , inf )

  end
  begin
    id 8
    name rtibia
    direction -0.34202 -0.939693 -7.74345e-010
    length 18.2421
    axis 0 -0 -20 xyz
    dof rz ry rx
    limits( -inf , inf )
( -inf , inf )
( -inf , inf )

  end
  begin
    id 9
    name rfoot
    direction -0.124331 -0.341598 0.931586
    length 5.45787
    axis -90 -7.62852e-016 -20 xyz
    dof ry rx rz
    limits( -inf , inf )
( -inf , inf )
( -inf , inf )

  end
  begin
    id 10
    name rtoes
    direction 0 0 0
    length 0
    axis 0 0 0 xyz
    dof rz ry rx
    limits( -inf , inf )
( -inf , inf )
( -inf , inf )

  end
  begin
    id 11
    name lowerbackDummy
    direction 0 0 0
    length 0
    axis 0 -0 0 xyz
  end
  begin
    id 12
    name lowerback
    direction -0.0218484 0.994884 -0.0986304
    length 4.45607
    axis 0 -0 0 xyz
    dof rx ry rz
    limits( -inf , inf )
( -inf , inf )
( -inf , inf )

  end
  begin
    id 13
    name upperback
    direction -0.00973057 0.999717 -0.0217111
    length 4.47449
    axis 0 -0 0 xyz
    dof rx ry rz
    limits( -inf , inf )
( -inf , inf )
( -inf , inf )

  end
  begin
    id 14
    name thorax
    direction -0.000928171 0.999699 0.0245198
    length 4.50973
    axis 0 -0 0 xyz
    dof rx ry rz
    limits( -inf , inf )
( -inf , inf )
( -inf , inf )

  end
  begin
    id 15
    name rclavicle
    direction -0.9009 0.425937 -0.0834055
    length 7.28587
    axis 0 -0 0 xyz
    dof rx ry rz
    limits( -inf , inf )
( -inf , inf )
( -inf , inf )

  end
  begin
    id 16
    name rhumerus
    direction -1 -2.23604e-007 -1.42637e-007
    length 13.5704
    axis 180 30 90 xyz
    dof rx ry rz
    limits( -inf , inf )
( -inf , inf )
( -inf , inf )

  end
  begin
    id 17
    name rradius
    direction -1 5.68281e-008 -4.4952e-007
    length 8.06782
    axis 180 30 90 xyz
    dof rz ry rx
    limits( -inf , inf )
( -inf , inf )
( -inf , inf )

  end
  begin
    id 18
    name rwrist
    direction -1 1.51393e-007 1.38143e-007
    length 4.03391
    axis -90 -90 0 xyz
    dof rz rx ry
    limits( -inf , inf )
( -inf , inf )
( -inf , inf )

  end
  begin
    id 19
    name rthumb
    direction 0 0 0
    length 0
    axis 0 0 0 xyz
    dof ry rx rz
    limits( -inf , inf )
( -inf , inf )
( -inf , inf )

  end
  begin
    id 20
    name rhand
    direction -1 -3.34077e-007 -5.59631e-007
    length 1.29744
    axis -90 -90 0 xyz
    dof ry rx rz
    limits( -inf , inf )
( -inf , inf )
( -inf , inf )

  end
  begin
    id 21
    name rfingers
    direction 0 0 0
    length 0
    axis 0 0 0 xyz
    dof rz ry rx
    limits( -inf , inf )
( -inf , inf )
( -inf , inf )

  end
  begin
    id 22
    name lclavicle
    direction 0.940017 0.332249 -0.0773232
    length 8.29589
    axis 0 -0 0 xyz
    dof rx ry rz
    limits( -inf , inf )
( -inf , inf )
( -inf , inf )

  end
  begin
    id 23
    name lhumerus
    direction 1 7.41158e-008 -1.44768e-008
    length 12.0042
    axis 180 -30 -90 xyz
    dof rx ry rz
    limits( -inf , inf )
( -inf , inf )
( -inf , inf )

  end
  begin
    id 24
    name lradius
    direction 1 -1.32972e-007 3.10821e-007
    length 8.1902
    axis 180 -30 -90 xyz
    dof rz ry rx
    limits( -inf , inf )
( -inf , inf )
( -inf , inf )

  end
  begin
    id 25
    name lwrist
    direction 1 3.08957e-007 4.01394e-007
    length 4.09509
    axis -90 90 0 xyz
    dof rz rx ry
    limits( -inf , inf )
( -inf , inf )
( -inf , inf )

  end
  begin
    id 26
    name lthumb
    direction 0 0 0
    length 0
    axis 0 0 0 xyz
    dof ry rx rz
    limits( -inf , inf )
( -inf , inf )
( -inf , inf )

  end
  begin
    id 27
    name lhand
    direction 1 -1.64125e-007 -6.99514e-007
    length 1.37229
    axis -90 90 0 xyz
    dof ry rx rz
    limits( -inf , inf )
( -inf , inf )
( -inf , inf )

  end
  begin
    id 28
    name lfingers
    direction 0 0 0
    length 0
    axis 0 0 0 xyz
    dof rz ry rx
    limits( -inf , inf )
( -inf , inf )
( -inf , inf )

  end
  begin
    id 29
    name lowerneck
    direction -0.030798 0.998024 0.0547665
    length 3.93918
    axis 0 -0 0 xyz
    dof rx ry rz
    limits( -inf , inf )
( -inf , inf )
( -inf , inf )

  end
  begin
    id 30
    name upperneck
    direction 0.0531588 0.996611 -0.0627736
    length 3.95491
    axis 0 -0 0 xyz
    dof rx ry rz
    limits( -inf , inf )
( -inf , inf )
( -inf , inf )

  end
  begin
    id 31
    name head
    direction 0 0 0
    length 0
    axis 0 0 0 xyz
    dof rx ry rz
    limits( -inf , inf )
( -inf , inf )
( -inf , inf )

  end
:hierarchy
  begin
    root lfemurDummy rfemurDummy lowerbackDummy
    lfemurDummy lfemur
    lfemur ltibia
    ltibia lfoot
    lfoot ltoes
    rfemurDummy rfemur
    rfemur rtibia
    rtibia rfoot
    rfoot rtoes
    lowerbackDummy lowerback
    lowerback upperback
    upperback thorax
    thorax rclavicle lclavicle lowerneck
    rclavicle rhumerus
    rhumerus rradius
    rradius rwrist
    rwrist rthumb rhand
    rhand rfingers
    lclavicle lhumerus
    lhumerus lradius
    lradius lwrist
    lwrist lthumb lhand
    lhand lfingers
    lowerneck upperneck
    upperneck head
  end

:SAMPLES-PER-SECOND 30
:FULLY-SPECIFIED
:DEGREES
46
root  4.666755706 41.67355515 -2.014837866 -6.901977539 -32.45399475 6.340026855
lowerback  8.991149902 1.19343996 -3.486789942
upperback  3.375169992 1.253280044 -0.01241470035
thorax  -1.612730026 0.5942720175 1.818590045
lowerneck  -5.831719875 4.21724987 -4.056009769
upperneck  10.73099995 5.371089935 6.331699848
head  3.860960007 2.815399885 2.851860046
lclavicle  0 -9.442270133e-015 7.951389973e-016
lhumerus  2.219389915 -20.53849983 75.67590332
lradius  2.786770672e-031 -2.168583237e-031 142.1109924
lwrist  -1.412450015e-030 -1.765562519e-031 8.697230339
lhand  -1.496451383e-031 -27.76390076 20.11240005
lfingers  90 7.125020027 -90
lthumb  89.89689403 5.08795885 91.16245106
rclavicle  0 -9.442270133e-015 7.951389973e-016
rhumerus  14.78950024 9.437470436 -76.86730194
rradius  -2.550800392e-031 2.441774231e-031 136.2510071
rwrist  7.062250077e-031 -0 -13.58010006
rhand  -7.920061211e-032 -33.2840004 9.303460121
rfingers  -90 -7.125020027 -90
rthumb  -92.93752616 -24.25625642 -97.11982154
rfemur  -18.71419907 15.2638998 13.9822998
rtibia  -0 0 60.1106987
rfoot  -4.428773417e-032 -4.69603014 -0.2542819977
rtoes  5.373923086 19.29304026 -105.8922705
lfemur  -23.40200043 13.30630016 -20.10129929
ltibia  -0 0 65.92120361
lfoot  -0 -4.996099949 9.333660126
ltoes  -4.250644065 -19.5611806 -102.515957
47
root  4.619822164 41.58488897 -2.023957846 -7.286010742 -32.34899902 6.273986816
lowerback  9.306110382 1.095950007 -3.664060116
upperback  3.483720064 1.095039964 -0.01165680028
thorax  -1.66723001 0.5129410028 1.93208003
lowerneck  -5.964960098 4.253769875 -3.878550053
upperneck  10.34720039 5.451620102 6.04527998
head  3.7771101 2.849189997 2.734420061
lclavicle  0 -9.442270133e-015 7.951389973e-016
lhumerus  2.360199928 -20.66519928 75.52629852
lradius  2.797297701e-031 -2.154987149e-031 142.3899994
lwrist  -7.062250077e-031 -1.765562519e-031 8.464229584
lhand  -1.496451383e-031 -27.76390076 20.11240005
lfingers  90 7.125020027 -90
lthumb  89.89689403 5.08795885 91.16245106
rclavicle  0 -9.442270133e-015 7.951389973e-016
rhumerus  14.78979969 9.255270004 -76.61029816
rradius  -2.555100656e-031 2.437274026e-031 136.352005
rwrist  7.062250077e-031 -1.765562519e-031 -13.28829956
rhand  -7.920061211e-032 -33.2840004 9.303460121
rfingers  -90 -7.125020027 -90
rthumb  -92.93752616 -24.25625642 -97.11982154
rfemur  -18.89959908 16.12590027 14.1789999
rtibia  -0 0 59.70489883
rfoot  -4.987663343e-032 -5.385739803 -0.6783149838
rtoes  5.373923086 19.29304026 -105.8922705
lfemur  -22.86020088 13.07680035 -20.19910049
ltibia  -0 0 67.12940216
lfoot  -0 -4.075270176 8.695429802
ltoes  -4.250644065 -19.5611806 -102.515957
48
root  4.574599979 41.47333461 -2.023886696 -7.611999512 -32.32800293 6.104980469
lowerback  9.593279839 0.9933699965 -3.757760048
upperback  3.60165 0.9383900166 0.006543439813
thorax  -1.694730043 0.4320519865 2.018049955
lowerneck  -6.325970173 4.303820133 -3.736390114
upperneck  10.21679974 5.536610126 5.888939857
head  3.802629948 2.89331007 2.674789906
lclavicle  0 -9.442270133e-015 7.951389973e-016
lhumerus  2.551460028 -20.6814003 75.37539673
lradius  2.803754176e-031 -2.146580201e-031 142.5619965
lwrist  -7.062250077e-031 1.765562519e-031 8.228730202
lhand  -1.496451383e-031 -27.76390076 20.11240005
lfingers  90 7.125020027 -90
lthumb  89.89689403 5.08795885 91.16245106
rclavicle  0 -9.442270133e-015 7.951389973e-016
rhumerus  14.79389954 8.97315979 -76.41290283
rradius  -2.558373632e-031 2.433838202e-031 136.4290009
rwrist  7.062250077e-031 -0 -12.68799973
rhand  -7.920061211e-032 -33.2840004 9.303460121
rfingers  -90 -7.125020027 -90
rthumb  -92.93752616 -24.25625642 -97.11982154
rfemur  -19.00449944 17.0345993 14.43050003
rtibia  -0 0 59.06779861
rfoot  -5.549883479e-032 -6.20374012 -1.246889949
rtoes  5.373923086 19.29304026 -105.8922705
lfemur  -22.2159996 12.7663002 -20.14189911
ltibia  -0 0 68.11049652
lfoot  -0 -2.826319933 7.980140209
ltoes  -4.250644065 -19.5611806 -102.515957
49
root  4.525422299 41.34088952 -2.013008801 -7.661010742 -32.4019928 5.315002441
lowerback  9.874389648 0.8592600226 -3.319910049
upperback  3.72796011 0.7933480144 0.1716559976
thorax  -1.706670046 0.3587830067 1.956990004
lowerneck  -6.640850067 4.386419773 -3.69611001
upperneck  10.06879997 5.661580086 5.857019901
head  3.806269884 2.959059954 2.669509888
lclavicle  0 -9.442270133e-015 7.951389973e-016
lhumerus  2.76560998 -20.57040024 75.33439636
lradius  2.806112901e-031 -2.143495842e-031 142.625
lwrist  -1.412450015e-030 -1.765562519e-031 8.185199738
lhand  -1.496451383e-031 -27.76390076 20.11240005
lfingers  90 7.125020027 -90
lthumb  89.89689403 5.08795885 91.16245106
rclavicle  0 -9.442270133e-015 7.951389973e-016
rhumerus  14.91040039 8.846150398 -76.29789734
rradius  -2.56287209e-031 2.429100798e-031 136.5350037
rwrist  1.412450015e-030 -1.765562519e-031 -12.58839989
rhand  -7.920061211e-032 -33.2840004 9.303460121
rfingers  -90 -7.125020027 -90
rthumb  -92.93752616 -24.25625642 -97.11982154
rfemur  -19.00040054 17.89900017 15.28250027
rtibia  -0 0 58.26760101
rfoot  -4.450434484e-032 -7.345950127 -1.876929998
rtoes  5.373923086 19.29304026 -105.8922705
lfemur  -21.42040062 12.38599968 -19.39349937
ltibia  -0 0 68.8062973
lfoot  8.830109609e-032 -1.306910038 6.789130211
ltoes  -4.250644065 -19.5611806 -102.515957
50
root  4.47640006 41.16977782 -2.005373399 -7.518981934 -32.48899841 4.338989258
lowerback  10.08940029 0.710729003 -2.7620399
upperback  3.783360004 0.6466699839 0.3938980103
thorax  -1.756389976 0.2870930135 1.888550043
lowerneck  -6.8884902 4.469449997 -3.740099907
upperneck  9.979260445 5.782460213 5.918389797
head  3.811019897 3.023659945 2.705470085
lclavicle  0 -9.442270133e-015 7.951389973e-016
lhumerus  2.930419922 -20.45330048 75.35890198
lradius  2.808131884e-031 -2.140850149e-031 142.6790009
lwrist  -7.062250077e-031 -0 8.259630203
lhand  -1.496451383e-031 -27.76390076 20.11240005
lfingers  90 7.125020027 -90
lthumb  89.89689403 5.08795885 91.16245106
rclavicle  0 -9.442270133e-015 7.951389973e-016
rhumerus  14.86299992 8.781990051 -76.15519714
rradius  -2.572686654e-031 2.418703665e-031 136.7669983
rwrist  7.062250077e-031 -1.765562519e-031 -12.90260029
rhand  -7.920061211e-032 -33.2840004 9.303460121
rfingers  -90 -7.125020027 -90
rthumb  -92.93752616 -24.25625642 -97.11982154
rfemur  -19.15500069 18.63780022 16.24889946
rtibia  -0 0 57.48160172
rfoot  -4.466976883e-032 -8.840740204 -2.500890017
rtoes  5.373923086 19.29304026 -105.8922705
lfemur  -20.64830017 11.8512001 -18.46089935
ltibia  -0 0 69.1289978
lfoot  4.414040627e-032 0.4469969869 4.993000031
ltoes  -4.250644065 -19.5611806 -102.515957
